<?xml version="1.0" standalone="no"?>
<!DOCTYPE svg PUBLIC "-//W3C//DTD SVG 20010904//EN"
 "http://www.w3.org/TR/2001/REC-SVG-20010904/DTD/svg10.dtd">
<svg version="1.0" xmlns="http://www.w3.org/2000/svg"
 width="1024.000000pt" height="1024.000000pt" viewBox="0 0 1024.000000 1024.000000"
 preserveAspectRatio="xMidYMid meet">

<g transform="translate(0.000000,1024.000000) scale(0.100000,-0.100000)"
fill="#000000" stroke="none">
<path d="M0 5120 l0 -5120 5120 0 5120 0 0 5120 0 5120 -5120 0 -5120 0 0
-5120z m5304 2985 c396 -19 862 -177 1205 -408 396 -265 677 -590 892 -1031
296 -605 318 -1367 58 -2023 -37 -93 -90 -203 -99 -203 -3 0 -14 6 -24 13 -18
13 -17 17 17 90 87 186 166 450 202 677 23 141 31 479 16 623 -64 598 -322
1119 -763 1544 -245 235 -599 446 -929 551 -432 139 -907 158 -1324 55 -146
-36 -228 -61 -339 -105 -375 -148 -722 -396 -965 -688 -123 -148 -187 -237
-264 -370 -250 -434 -352 -866 -325 -1386 15 -295 88 -598 208 -868 46 -102
49 -112 33 -123 -9 -7 -20 -13 -24 -13 -4 0 -30 53 -58 118 -138 311 -205 608
-218 957 -21 595 157 1141 532 1630 62 81 302 331 365 381 184 145 323 234
495 319 243 120 446 187 719 235 107 19 393 40 456 34 14 -2 74 -5 134 -9z
m-127 -924 c27 -15 146 -84 266 -151 l218 -123 -1 -313 c-2 -359 -1 -364 72
-364 44 0 88 -35 88 -70 0 -29 -44 -70 -74 -70 -37 0 -79 54 -71 92 6 24 2 35
-21 59 -15 16 -31 29 -34 29 -4 0 -62 -31 -131 -70 -68 -38 -175 -98 -236
-132 -111 -62 -113 -64 -113 -99 0 -35 1 -36 45 -42 101 -14 223 -105 269
-200 41 -83 50 -216 22 -288 -5 -10 4 -20 30 -32 l36 -18 86 49 c282 158 312
177 307 191 -3 8 -1 29 5 47 10 30 8 38 -44 119 -31 47 -56 90 -56 96 0 26 29
-4 79 -85 48 -77 57 -87 77 -82 13 4 39 0 58 -8 27 -11 37 -23 45 -53 10 -37
18 -42 230 -161 l220 -123 3 -130 c2 -98 0 -129 -9 -129 -10 0 -13 31 -13 119
l0 120 -102 57 c-57 31 -154 86 -217 121 l-113 65 -22 -21 c-26 -24 -82 -28
-109 -7 -16 12 -38 2 -203 -91 -101 -58 -184 -109 -184 -112 0 -7 223 -137
347 -203 35 -18 63 -39 63 -47 0 -19 -9 -14 -232 110 -109 60 -199 109 -200
109 -2 0 -3 -49 -2 -110 1 -86 -2 -110 -13 -110 -10 0 -13 27 -13 120 l0 120
-36 17 c-34 17 -36 17 -46 -2 -6 -11 -38 -47 -72 -81 -81 -80 -148 -107 -262
-107 -70 0 -91 4 -146 30 -76 36 -127 78 -165 138 -15 25 -32 45 -36 45 -4 0
-26 -9 -47 -20 l-40 -20 0 -160 c0 -100 -4 -160 -10 -160 -6 0 -10 57 -10 150
0 83 -3 150 -6 150 -7 0 -178 -91 -320 -171 -72 -40 -74 -42 -74 -84 0 -73
-51 -124 -124 -125 -32 0 -45 6 -72 36 -76 80 -24 204 84 204 l29 0 78 248
c42 136 87 277 98 314 l20 66 -22 28 c-26 33 -27 58 -1 84 38 38 104 21 122
-30 9 -27 -11 -61 -45 -75 -32 -13 -35 -19 -81 -172 -27 -87 -70 -226 -97
-309 -27 -83 -49 -155 -49 -160 0 -5 12 -17 25 -27 24 -17 26 -16 219 90 108
60 196 111 196 115 0 4 -61 41 -135 84 -79 45 -135 82 -135 91 0 14 3 14 23 1
12 -8 80 -48 151 -88 l129 -74 44 24 c36 19 43 27 38 44 -3 12 -9 50 -12 86
-15 185 132 365 317 387 49 6 50 7 50 39 0 32 -3 35 -192 142 -312 176 -293
168 -323 148 -18 -12 -25 -25 -25 -48 0 -41 -25 -68 -63 -68 -75 0 -94 90 -26
125 20 11 35 12 52 6 19 -7 32 -4 58 13 68 46 246 156 252 156 23 0 -5 -24
-92 -81 -55 -35 -100 -66 -100 -69 -1 -3 16 -14 37 -26 20 -11 119 -66 219
-122 100 -56 186 -102 192 -102 8 0 11 70 11 218 l0 218 -32 12 c-42 15 -78
68 -78 113 0 80 78 142 151 120 110 -33 121 -179 18 -231 l-40 -21 3 -209 c2
-114 6 -212 10 -216 4 -4 72 29 150 74 79 44 178 99 220 123 43 24 78 46 78
49 0 3 -47 36 -105 75 -64 43 -101 73 -95 79 6 6 52 -19 120 -64 72 -48 114
-70 121 -63 6 6 8 118 7 293 l-3 283 -257 147 -257 147 -193 -109 c-106 -61
-223 -128 -260 -150 l-68 -39 0 -173 0 -172 30 -22 c53 -40 33 -112 -31 -112
-34 0 -69 31 -69 60 0 12 12 33 26 47 l26 26 -1 181 -1 181 267 152 c148 84
271 153 275 153 4 0 29 -13 55 -29z m166 -177 c122 -70 227 -133 233 -141 8
-9 11 -59 10 -146 -1 -72 1 -143 6 -156 11 -31 -14 -71 -46 -71 -35 0 -58 32
-55 77 1 21 2 84 1 140 l-2 101 -173 101 c-94 55 -179 102 -187 105 -8 2 -96
-41 -195 -98 l-180 -102 -3 -127 c-4 -172 -22 -167 -22 6 l1 132 197 112 c193
110 197 112 222 96 14 -9 103 -62 198 -116 142 -82 172 -103 171 -121 -1 -11
-1 -63 -1 -113 2 -86 4 -93 22 -93 19 0 20 7 20 133 l0 133 -37 18 c-20 9
-106 59 -192 109 -86 51 -168 98 -183 106 -26 13 -34 10 -200 -85 -95 -54
-194 -109 -220 -124 l-48 -25 0 -117 c0 -67 -4 -118 -9 -118 -10 0 -20 226
-11 239 5 8 199 123 305 181 33 18 80 46 105 61 25 16 46 29 48 29 1 0 102
-57 225 -126z m-1131 -1294 c24 -25 29 -36 23 -58 -14 -59 -65 -83 -117 -57
-31 15 -32 15 -187 -71 -86 -48 -186 -103 -224 -123 l-67 -36 2 -294 3 -293
105 -60 c152 -86 351 -199 379 -214 21 -11 28 -10 50 5 14 10 82 48 151 86 69
37 171 95 228 128 l102 59 0 69 c0 39 4 69 10 69 6 0 10 -32 10 -75 l0 -75
-37 -23 c-38 -24 -148 -87 -258 -147 -33 -18 -99 -55 -146 -82 -48 -26 -89
-48 -91 -48 -3 0 -76 40 -164 90 -87 49 -205 116 -261 147 l-103 58 3 308 2
308 55 30 c30 17 113 63 183 102 71 40 148 83 173 96 34 19 44 29 44 50 1 29
15 52 45 69 32 19 55 14 87 -18z m-446 -524 c17 -13 19 -28 19 -167 l0 -153
183 -104 183 -103 147 82 c219 122 225 126 219 155 -3 16 0 24 9 24 9 0 14
-12 14 -34 0 -32 -5 -36 -87 -84 -49 -27 -124 -69 -168 -93 -44 -23 -89 -48
-100 -56 -11 -7 -25 -13 -32 -13 -11 0 -113 55 -315 171 l-78 44 0 118 0 117
-25 0 -25 0 0 -132 1 -133 217 -123 217 -124 60 31 c78 40 354 198 371 212 8
7 14 31 14 55 0 24 5 44 10 44 6 0 10 -27 10 -60 0 -33 -4 -60 -10 -60 -8 0
-336 -182 -416 -230 -35 -23 -4 -36 -286 124 l-208 118 0 143 c0 78 -3 156 -6
173 -5 22 -1 35 15 51 25 25 40 26 67 7z m1928 -187 c58 -69 16 -179 -69 -179
-67 0 -113 82 -85 151 17 40 46 59 91 59 29 0 43 -7 63 -31z m191 25 c24 -9
45 -58 45 -103 0 -88 -96 -136 -155 -76 -21 20 -25 34 -25 80 0 46 4 60 25 80
24 25 73 33 110 19z m255 -14 c0 -18 -7 -20 -55 -20 -52 0 -55 -1 -55 -25 0
-23 3 -25 50 -25 43 0 50 -3 50 -20 0 -17 -7 -20 -50 -20 l-50 0 0 -40 c0 -36
-3 -40 -24 -40 -31 0 -33 7 -35 118 l-2 92 85 0 c79 0 86 -2 86 -20z m200 0
c0 -18 -7 -20 -55 -20 -52 0 -55 -1 -55 -25 0 -23 3 -25 50 -25 43 0 50 -3 50
-20 0 -17 -7 -20 -50 -20 l-50 0 0 -40 c0 -36 -2 -40 -25 -40 l-25 0 0 105 0
105 80 0 c73 0 80 -2 80 -20z m200 5 c37 -19 50 -43 50 -92 0 -31 -7 -46 -30
-68 -28 -26 -39 -30 -105 -33 l-75 -4 0 106 0 106 65 0 c39 0 78 -6 95 -15z
m-1798 -36 c28 -7 45 -6 72 8 35 16 37 16 64 -4 32 -24 41 -73 17 -97 -43 -42
-104 -24 -121 36 -9 30 -15 34 -64 45 -30 6 -88 12 -127 12 -46 1 -73 5 -73
12 0 12 170 4 232 -12z m641 -185 c20 -4 37 -11 37 -15 0 -12 -397 -11 -405 0
-9 16 291 27 368 15z m448 -164 l213 -118 55 31 c31 17 125 71 210 119 160 91
178 100 182 83 1 -5 -99 -67 -222 -137 l-224 -126 -50 27 c-234 129 -414 235
-409 242 7 12 9 10 245 -121z m-1432 -946 c53 -44 40 -123 -25 -150 -43 -18
-106 -4 -129 29 -16 22 -20 84 -7 103 34 49 114 58 161 18z m1572 -3 c56 -57
24 -145 -56 -152 -83 -6 -125 24 -125 91 0 59 36 90 102 90 41 0 54 -5 79 -29z
m-2199 -206 l3 -185 89 83 c49 45 101 84 115 87 14 3 58 3 98 0 l72 -5 -55
-60 c-31 -33 -74 -79 -96 -102 l-41 -42 73 -103 c41 -57 89 -124 107 -149 l33
-46 -87 -6 c-48 -3 -93 -3 -100 0 -7 3 -41 42 -74 87 -34 44 -66 85 -70 90 -5
6 -21 -2 -39 -19 -27 -26 -30 -35 -30 -92 l0 -63 -85 0 -85 0 0 355 0 355 85
0 85 0 2 -185z m956 -173 l2 -353 -87 3 -88 3 -3 353 -2 353 87 -3 88 -3 3
-353z m312 3 l0 -355 -85 0 -85 0 0 355 0 355 85 0 85 0 0 -355z m1940 174 c0
-99 4 -179 9 -177 5 2 48 40 96 86 l88 82 94 0 c52 0 93 -4 91 -9 -1 -5 -45
-52 -95 -105 -51 -53 -93 -100 -93 -104 0 -5 47 -73 104 -153 57 -79 103 -145
102 -146 0 0 -45 -3 -98 -6 l-97 -4 -32 46 c-18 25 -50 68 -72 94 l-40 48 -28
-27 c-26 -25 -29 -34 -29 -91 l0 -63 -90 0 -90 0 0 355 0 355 90 0 90 0 0
-181z m-3573 119 c29 -10 55 -23 58 -29 4 -5 -6 -36 -21 -69 -21 -47 -31 -59
-43 -54 -54 22 -113 34 -171 34 -53 0 -71 -4 -88 -20 -24 -23 -26 -33 -12 -59
11 -22 38 -33 150 -62 94 -24 146 -47 172 -76 24 -26 48 -87 48 -121 0 -44
-46 -127 -88 -155 -53 -37 -161 -60 -243 -53 -79 7 -189 39 -217 64 -20 17
-20 17 9 79 l29 62 55 -25 c127 -59 266 -54 273 8 4 36 -26 55 -141 85 -154
41 -217 89 -225 172 -2 27 -1 66 2 86 13 70 101 137 204 155 66 12 188 1 249
-22z m1973 -248 l0 -260 169 0 169 0 1 -70 c1 -67 0 -70 -25 -76 -14 -4 -79
-4 -143 -1 -64 4 -171 7 -238 7 l-123 0 0 330 0 330 95 0 95 0 0 -260z m1130
119 c57 -13 104 -49 133 -102 20 -38 22 -58 25 -229 l4 -186 -87 -4 c-48 -2
-89 -1 -91 1 -2 2 -4 71 -4 152 0 81 -4 159 -10 174 -23 60 -128 64 -166 7
-16 -23 -20 -51 -22 -179 l-4 -153 -84 0 -84 0 0 260 0 261 83 -3 c77 -3 82
-4 85 -26 l3 -23 33 20 c30 19 91 38 126 40 8 0 35 -4 60 -10z m-530 -259 l0
-260 -90 0 -90 0 0 255 0 254 78 4 c42 1 83 4 90 5 9 2 12 -56 12 -258z
m-1570 -5 l0 -255 -85 0 -85 0 0 255 0 255 85 0 85 0 0 -255z m5275 -2455 c10
8 14 4 19 -15 4 -14 4 -31 0 -37 -4 -6 -3 -9 2 -6 5 4 26 -11 48 -32 27 -27
34 -40 25 -45 -7 -5 -10 -4 -5 3 3 6 2 13 -3 16 -5 4 -8 -2 -7 -11 2 -9 8 -19
14 -21 7 -2 12 -8 12 -14 0 -6 -8 -7 -17 -3 -14 5 -15 3 -6 -6 13 -13 35 -3
31 15 -2 6 2 11 7 11 6 0 9 -6 9 -13 -1 -8 2 -10 10 -3 13 11 50 -11 38 -24
-4 -4 3 -4 16 -1 43 14 21 -9 -32 -32 -30 -13 -57 -30 -60 -38 -3 -8 -17 -14
-30 -14 -14 0 -31 -9 -40 -22 -20 -28 -20 -50 -1 -24 13 17 15 18 15 3 0 -9
-4 -17 -9 -17 -5 0 -13 -15 -17 -32 -4 -18 -9 -27 -11 -20 -4 9 -9 10 -17 2
-10 -8 -12 2 -10 45 2 30 0 55 -4 56 -4 0 -17 2 -29 5 -13 2 -23 -1 -23 -7 0
-5 5 -7 10 -4 6 3 10 0 10 -7 0 -9 3 -9 10 2 11 17 11 18 15 -35 l4 -40 -14
31 c-7 17 -20 34 -29 37 -9 4 -16 14 -16 22 0 9 -4 14 -9 10 -5 -3 -12 -1 -15
4 -4 5 -1 13 5 17 8 5 9 3 4 -7 -5 -8 -4 -11 0 -6 13 11 16 45 5 52 -6 3 -10
11 -10 16 0 6 4 8 8 5 5 -3 8 13 8 34 0 21 -4 36 -8 34 -5 -3 -6 -9 -3 -14 3
-5 -4 -12 -16 -15 -14 -5 -18 -10 -11 -17 6 -6 8 -17 5 -24 -3 -8 2 -17 11
-20 9 -3 16 -11 16 -16 0 -6 -7 -8 -15 -4 -8 3 -14 2 -12 -2 1 -4 -2 -7 -8 -7
-5 0 -8 7 -7 15 3 11 1 12 -8 4 -8 -8 -20 -7 -45 5 -33 16 -50 36 -20 25 8 -4
15 -2 15 4 0 5 14 15 31 22 17 7 45 29 63 48 25 25 35 31 41 22 5 -8 4 -11 -3
-6 -6 3 -13 2 -17 -4 -13 -21 24 -9 39 12 20 28 20 50 1 24 -13 -17 -15 -18
-15 -3 0 9 4 17 9 17 5 0 13 15 17 33 4 17 9 26 11 19 4 -9 9 -10 18 -2z m-95
-160 c0 -5 -4 -10 -10 -10 -5 0 -10 5 -10 10 0 6 5 10 10 10 6 0 10 -4 10 -10z
m170 -126 c0 -8 -19 -13 -24 -6 -3 5 1 9 9 9 8 0 15 -2 15 -3z"/>
<path d="M5062 6675 c-16 -14 -33 -36 -36 -50 -10 -39 18 -92 58 -112 34 -16
38 -16 71 0 21 10 42 31 51 51 45 93 -65 178 -144 111z"/>
<path d="M4571 6501 c-25 -25 -26 -35 -5 -55 19 -20 48 -20 64 -1 16 19 9 45
-17 62 -19 13 -24 12 -42 -6z"/>
<path d="M4475 6234 c-23 -24 -15 -57 17 -68 19 -7 31 -6 42 4 22 17 20 57 -3
70 -27 14 -37 13 -56 -6z"/>
<path d="M5712 6198 c-17 -17 -15 -54 4 -72 18 -19 16 -18 47 -7 30 12 39 43
20 70 -16 23 -52 28 -71 9z"/>
<path d="M4361 5918 c-20 -52 54 -89 85 -43 12 18 11 24 -2 43 -21 30 -71 30
-83 0z"/>
<path d="M5013 5843 c-62 -22 -142 -97 -170 -162 -18 -41 -24 -72 -24 -125 1
-264 308 -393 508 -213 82 74 115 206 79 315 -39 116 -162 203 -286 201 -36 0
-84 -7 -107 -16z m196 -92 c116 -60 154 -196 85 -308 -70 -113 -241 -130 -330
-31 -103 112 -62 291 77 347 42 17 127 12 168 -8z"/>
<path d="M5977 5682 c-43 -48 9 -117 68 -90 33 15 42 51 21 83 -20 30 -65 34
-89 7z"/>
<path d="M4114 5170 c-30 -12 -64 -58 -64 -87 0 -37 30 -81 63 -92 54 -19 127
31 127 87 0 65 -68 115 -126 92z"/>
<path d="M5514 6555 c-7 -18 12 -45 32 -45 20 0 36 34 22 48 -17 17 -48 15
-54 -3z"/>
<path d="M4120 5700 c-11 -11 -20 -29 -20 -40 0 -22 33 -60 53 -60 27 0 57 31
57 60 0 18 -8 34 -22 44 -30 21 -44 20 -68 -4z"/>
<path d="M3710 5165 c-25 -30 15 -70 45 -45 20 16 19 46 -1 54 -23 9 -30 8
-44 -9z"/>
<path d="M5596 4974 c-12 -30 -6 -93 10 -108 36 -37 78 36 55 97 -12 31 -55
38 -65 11z"/>
<path d="M5812 4978 c-18 -18 -15 -94 4 -112 23 -23 52 -4 60 40 12 63 -28
108 -64 72z"/>
<path d="M6430 4925 l0 -65 35 0 c43 0 75 29 75 69 0 37 -31 61 -77 61 l-33 0
0 -65z"/>
<path d="M4817 4962 c-30 -33 -16 -82 24 -82 44 0 67 70 30 90 -27 14 -35 13
-54 -8z"/>
<path d="M9681 723 c3 -20 -2 -27 -12 -13 -8 12 -9 10 -4 -7 3 -12 1 -31 -5
-43 -6 -11 -8 -20 -6 -20 13 0 45 79 36 85 -6 4 -10 3 -9 -2z"/>
<path d="M9716 668 c3 -10 2 -18 -4 -18 -6 0 -12 5 -14 12 -3 8 -6 7 -10 -3
-4 -11 2 -15 28 -16 19 0 34 4 34 10 0 6 -3 7 -7 4 -3 -4 -12 1 -20 11 -12 16
-13 16 -7 0z"/>
<path d="M9511 571 c-19 -16 -19 -20 -5 -25 8 -3 23 -2 32 4 10 5 13 10 7 10
-5 0 -4 4 3 9 11 7 11 9 -1 14 -9 3 -25 -2 -36 -12z m22 -6 c-3 -9 -8 -14 -10
-11 -3 3 -2 9 2 15 9 16 15 13 8 -4z"/>
<path d="M9820 570 c-9 -6 -10 -10 -3 -10 6 0 15 5 18 10 8 12 4 12 -15 0z"/>
<path d="M9764 529 c1 -15 5 -31 10 -36 5 -4 6 -3 3 3 -4 7 6 17 23 24 16 7
35 20 42 29 11 14 11 14 -3 4 -9 -7 -18 -10 -22 -7 -3 3 -16 7 -30 8 -20 3
-24 -1 -23 -25z"/>
<path d="M9689 457 c-7 -15 -7 -30 1 -47 10 -25 10 -25 5 3 -3 15 -1 36 5 47
6 11 8 20 5 20 -3 0 -10 -10 -16 -23z"/>
</g>
</svg>
