<?xml version="1.0" encoding="UTF-8"?>
<svg version="1.1" xmlns="http://www.w3.org/2000/svg" width="211" height="202">
<path d="M0 0 C69.63 0 139.26 0 211 0 C211 66.66 211 133.32 211 202 C141.37 202 71.74 202 0 202 C0 135.34 0 68.68 0 0 Z " fill="#FEFEFE" transform="translate(0,0)"/>
<path d="M0 0 C5.20716918 2.83522023 9.27950471 6.19332839 11 12 C12.73284135 22.87938537 8.54912016 32.9019081 5 43 C5.62326172 42.8462793 6.24652344 42.69255859 6.88867188 42.53417969 C23.93641435 38.46207701 46.58602933 40.38732687 62.140625 49.21484375 C62.69234375 49.57707031 63.2440625 49.93929687 63.8125 50.3125 C67.67701879 52.35842171 70.12290147 52.11873475 74.39453125 51.9765625 C83.02997897 52.05424269 88.80282914 55.68834522 94.859375 61.62109375 C100.61132986 68.01332096 101.62939862 73.2947499 101.3125 81.890625 C100.4628268 90.34487331 96.39872372 95.61027768 91 102 C92.2065625 102.2784375 92.2065625 102.2784375 93.4375 102.5625 C99.40364083 104.96989016 104.95145342 108.88950478 108.5625 114.3125 C110.67669157 119.73586099 111.27827755 124.67176583 109.15234375 130.20703125 C104.47581653 138.49795917 96.11811255 142.8388611 87.6875 146.5625 C86.82229736 146.94672119 85.95709473 147.33094238 85.06567383 147.72680664 C79.21354726 150.24108114 73.34253345 152.30214154 67.1875 153.9375 C66.48520264 154.12449463 65.78290527 154.31148926 65.05932617 154.50415039 C52.34087888 157.61162189 39.59452216 158.35091185 26.56689453 158.31567383 C24.13398411 158.31251168 21.702293 158.33609404 19.26953125 158.36132812 C4.7963116 158.42142884 -8.96655387 156.55783052 -22.6875 151.75 C-23.56760742 151.44698975 -24.44771484 151.14397949 -25.35449219 150.83178711 C-37.85341682 146.4124103 -50.774132 141.29990801 -58.125 129.625 C-59.30668825 124.72943441 -59.55252258 120.83499889 -58 116 C-51.24006642 105.10705003 -39.45871621 100.44960458 -28 96 C-28.28875 95.11441406 -28.5775 94.22882813 -28.875 93.31640625 C-31.93910174 83.09209456 -34.36322426 71.92095768 -31.22265625 61.39453125 C-26.44245045 52.59963303 -16.03891872 48.07614815 -7 45 C-5.98164062 44.81824219 -4.96328125 44.63648438 -3.9140625 44.44921875 C-0.62717783 42.81458844 -0.38582131 42.33313255 0.8984375 39.0703125 C1.42155673 37.43142843 1.91231928 35.78196146 2.375 34.125 C2.62685059 33.26890137 2.87870117 32.41280273 3.13818359 31.53076172 C5.25079195 23.93423973 7.2885133 16.08663089 3.25 8.875 C-0.3174067 5.90216108 -1.73542967 4.97741839 -6.5 5.0625 C-10.06809585 5.75037681 -10.06809585 5.75037681 -12.5 8.125 C-14.4374623 11.83846941 -13.94196798 13.99663607 -13 18 C-11.02 18 -9.04 18 -7 18 C-6.505 19.98 -6.505 19.98 -6 22 C-9.27057143 24.18038095 -10.20519469 24.63246755 -14 24 C-17.4959803 21.45746887 -19.25472667 19.28301527 -20 15.0625 C-20.25436211 10.96187448 -19.3602199 8.42612566 -17 5 C-11.83599197 -0.20622063 -7.20975351 -2.07825635 0 0 Z " fill="#FE5D29" transform="translate(80,18)"/>
<path d="M0 0 C10.29344417 2.20573804 23.62915872 6.22649837 30.13671875 15.171875 C31.83299948 18.76399891 31.70889259 21.06886835 31 25 C13.48828541 41.51990067 -21.48036789 41.81848297 -44.05859375 41.2890625 C-91.90739944 39.36508619 -91.90739944 39.36508619 -106.26953125 27.0546875 C-108.79422175 24.05697372 -109 21.88197955 -109 18 C-105.99410393 10.78584943 -98.43595971 7.05851725 -91.609375 3.890625 C-88.63217645 2.7217989 -86.21509624 2 -83 2 C-81.74751307 3.45024802 -80.50257518 4.90952325 -79.3359375 6.4296875 C-77.92445239 8.22894318 -77.92445239 8.22894318 -75.25 9.875 C-72.42511782 12.54294429 -72.74299276 14.24730497 -72.47265625 17.9765625 C-71.70443194 21.26532443 -69.77398332 22.72249621 -67.12890625 24.68359375 C-54.37593761 32.56937436 -39.28882817 32.07835353 -25 29 C-19.05077837 27.09255182 -13.51460097 24.35280129 -9.6875 19.25 C-8.97111825 16.9054779 -9.04397562 15.42197385 -9.1875 13 C-9.24609375 10.88671875 -9.24609375 10.88671875 -9 9 C-6.75 6.8125 -6.75 6.8125 -4 5 C-2.62631655 3.36643049 -1.28062485 1.7074998 0 0 Z " fill="#FEFDFC" transform="translate(145,126)"/>
<path d="M0 0 C1.32837891 0.68835938 1.32837891 0.68835938 2.68359375 1.390625 C24.87462942 12.54998006 50.96635475 14.99713723 75 8 C80.01465434 6.26480606 84.9349055 4.55248239 89.203125 1.34375 C91 0 91 0 93 0 C90.92357581 12.66618756 84.54433107 23.07934594 74.25 30.6875 C62.4822471 38.60981474 50.85308537 40.08241055 37 39 C32.98367232 38.17986308 29.6284899 36.88470106 26 35 C24.71222656 34.36384766 24.71222656 34.36384766 23.3984375 33.71484375 C12.71658325 27.92211614 4.7046225 17.98506802 1.1875 6.30078125 C0.71624832 4.21614706 0.34575142 2.10908364 0 0 Z " fill="#FEFCFB" transform="translate(56,101)"/>
<path d="M0 0 C2.19811258 1.94033818 3.42886137 3.47495577 5 6 C4.67 6.99 4.34 7.98 4 9 C-16.72030819 18.80722452 -42.614937 17.94490404 -64 11 C-65.35267995 10.37351842 -66.69795951 9.72588758 -68 9 C-67.50628759 4.78892358 -66.46845029 2.9844728 -63.25 0.25 C-62.57453125 -0.34296875 -61.8990625 -0.9359375 -61.203125 -1.546875 C-58.77287046 -3.14980885 -56.86447319 -3.61940566 -54 -4 C-53.505 -2.948125 -53.01 -1.89625 -52.5 -0.8125 C-50.0314915 3.52502208 -46.57036339 6.06295145 -42 8 C-40.68 8 -39.36 8 -38 8 C-38.33 7.01 -38.66 6.02 -39 5 C-39.9075 4.566875 -40.815 4.13375 -41.75 3.6875 C-45.74878864 1.6112059 -47.37675838 -0.37375423 -50 -4 C-50 -4.66 -50 -5.32 -50 -6 C-35.63396097 -14.28809944 -12.71959601 -8.70398802 0 0 Z " fill="#FEFBF9" transform="translate(135,90)"/>
<path d="M0 0 C1.98966398 1.64147278 3.03930668 3.20160909 3.546875 5.734375 C3.71525638 8.98774378 3.35807485 11.40072796 1.84375 14.28515625 C0.15625 15.78515625 0.15625 15.78515625 -2.84375 15.78515625 C-3.359375 14.91890625 -3.875 14.05265625 -4.40625 13.16015625 C-9.39258056 5.18202735 -20.2202563 2.02609135 -28.84375 -0.21484375 C-31.85670512 -0.81341079 -34.77613038 -1.09646246 -37.84375 -1.21484375 C-38.75640625 -1.25480469 -39.6690625 -1.29476562 -40.609375 -1.3359375 C-48.18687219 -1.50454673 -55.39646465 -0.56015981 -62.84375 0.78515625 C-62.84375 -2.51484375 -62.84375 -5.81484375 -62.84375 -9.21484375 C-42.362029 -15.30334583 -17.78592497 -11.71911582 0 0 Z " fill="#FEFAF8" transform="translate(145.84375,78.21484375)"/>
<path d="M0 0 C0.55692399 3.80220946 0.75672462 7.21637691 0 11 C-2.02461156 13.30148151 -4.11168578 14.76291082 -6.671875 16.4375 C-9.82679592 18.55489659 -11.69871907 21.00136121 -14 24 C-14.66 24.66 -15.32 25.32 -16 26 C-20.875 22.25 -20.875 22.25 -22 20 C-22.48013033 15.8388705 -22.34558666 13.60477665 -20.25 9.9375 C-15.80947776 5.16329689 -6.61495258 0 0 0 Z " fill="#FEF9F7" transform="translate(78,70)"/>
<path d="M0 0 C4.33092399 -0.6496386 6.67024509 0.14068186 10.125 2.625 C14.8318584 6.43188547 18.48735278 10.73914523 19.23828125 16.98046875 C19.43611955 22.86355516 18.47907772 27.18592734 15 32 C11.42681319 35.73560439 8.13603995 38.8645924 2.73828125 39.09765625 C1.93777344 39.08605469 1.13726562 39.07445312 0.3125 39.0625 C-0.89986328 39.04896484 -0.89986328 39.04896484 -2.13671875 39.03515625 C-2.75160156 39.02355469 -3.36648437 39.01195312 -4 39 C-3.5625 36.6875 -3.5625 36.6875 -2 34 C0.23067591 33.07891856 2.48352084 32.46929314 4.8046875 31.8125 C7.96073674 30.64442484 9.29784745 28.83692092 11 26 C12.60816725 21.17549824 12.80474053 16.8106662 10.75 12.1875 C8.14920432 8.9365054 5.94928155 7.31642718 2 6 C0.8125 2.9375 0.8125 2.9375 0 0 Z " fill="#FEF7F3" transform="translate(155,78)"/>
<path d="M0 0 C-0.5477495 3.83424653 -2.06231647 5.53869759 -5 8 C-15.18554197 14.30533551 -29.24168901 14.57109847 -40.7421875 12.2421875 C-46.37716343 10.61941665 -50.61792503 9.00646854 -55 5 C-55.8125 2.75 -55.8125 2.75 -56 1 C-52.99706019 1.99352107 -50.00347518 2.99874875 -47.02734375 4.0703125 C-33.12786823 8.81476053 -20.29565386 7.87654077 -6.9375 1.8125 C-6.24527344 1.46832031 -5.55304688 1.12414062 -4.83984375 0.76953125 C-3 0 -3 0 0 0 Z " fill="#FEF6F1" transform="translate(132,140)"/>
<path d="M0 0 C0 0.99 0 1.98 0 3 C-0.76183594 3.27972656 -1.52367188 3.55945313 -2.30859375 3.84765625 C-10.87061584 7.17198693 -18.79265084 11.1419219 -24 19 C-24.71433121 21.64934822 -24.71433121 21.64934822 -25 24 C-25.99 23.67 -26.98 23.34 -28 23 C-28.61207174 15.89996782 -28.61207174 15.89996782 -25.95703125 11.99609375 C-22.92500023 8.601251 -19.41430118 6.68742744 -15.375 4.6875 C-14.37339844 4.16833008 -14.37339844 4.16833008 -13.3515625 3.63867188 C-8.69009256 1.2473378 -5.24299567 -0.14170259 0 0 Z " fill="#FEF5F2" transform="translate(57,122)"/>
<path d="M0 0 C7.2946165 -0.99472043 12.93812912 2.1417011 19 6 C22.38140458 8.80838132 25.51931359 11.62352235 26.41796875 16.06640625 C26.4375 18 26.4375 18 26 21 C25.34 21.33 24.68 21.66 24 22 C23.608125 20.948125 23.21625 19.89625 22.8125 18.8125 C19.27576788 10.69594425 10.85650522 5.53033287 2.9375 2.125 C1.968125 1.75375 0.99875 1.3825 0 1 C0 0.67 0 0.34 0 0 Z " fill="#FFF3EC" transform="translate(157,124)"/>
<path d="M0 0 C3 1 3 1 4 3 C4.45753899 8.37608319 4.45753899 8.37608319 2.625 10.875 C1 12 1 12 -1 12 C-0.67 8.04 -0.34 4.08 0 0 Z " fill="#FFF8F5" transform="translate(157,92)"/>
<path d="M0 0 C0.66 0 1.32 0 2 0 C0.60249952 3.15835107 -1.05198234 5.32272825 -3.5 7.75 C-4.41265625 8.67039063 -4.41265625 8.67039063 -5.34375 9.609375 C-7 11 -7 11 -9 11 C-7.44095325 7.17324889 -4.96833913 4.81992217 -2 2 C-1.34 1.34 -0.68 0.68 0 0 Z " fill="#FEE6DC" transform="translate(145,126)"/>
<path d="M0 0 C0.66 0.33 1.32 0.66 2 1 C-0.64 3.64 -3.28 6.28 -6 9 C-6 6 -6 6 -3.5625 3.375 C-2.716875 2.59125 -1.87125 1.8075 -1 1 C-0.67 0.67 -0.34 0.34 0 0 Z " fill="#FDE2D7" transform="translate(44,135)"/>
<path d="M0 0 C-1.28519565 2.86697492 -2.57129254 4.97607712 -5 7 C-5.66 7 -6.32 7 -7 7 C-3.86206897 0 -3.86206897 0 0 0 Z " fill="#FDE4D9" transform="translate(75,89)"/>
<path d="M0 0 C0.99 0.33 1.98 0.66 3 1 C-0.465 3.97 -0.465 3.97 -4 7 C-3.04065919 3.16263678 -2.76390737 2.40339772 0 0 Z " fill="#FEE5DB" transform="translate(34,131)"/>
</svg>
